<?xml version="1.0" standalone="no"?>
<!DOCTYPE svg PUBLIC "-//W3C//DTD SVG 20010904//EN"
 "http://www.w3.org/TR/2001/REC-SVG-20010904/DTD/svg10.dtd">
<svg version="1.0" xmlns="http://www.w3.org/2000/svg"
 width="300.000000pt" height="300.000000pt" viewBox="0 0 300.000000 300.000000"
 preserveAspectRatio="xMidYMid meet">
<metadata>
Created by potrace 1.16, written by Peter Selinger 2001-2019
</metadata>
<g transform="translate(0.000000,300.000000) scale(0.100000,-0.100000)"
fill="#000000" stroke="none">
<path d="M1820 2006 l-135 -33 -3 -76 -3 -77 81 0 80 0 0 -285 0 -285 -65 0
-65 0 0 -105 0 -105 300 0 300 0 0 105 0 105 -50 0 -50 0 -2 393 -3 392 -125
2 c-110 1 -142 -3 -260 -31z"/>
<path d="M1056 2009 c-172 -40 -326 -193 -370 -365 -81 -314 160 -624 484
-624 274 0 500 226 500 500 -1 278 -228 503 -505 499 -38 -1 -87 -5 -109 -10z
m219 -74 c82 -22 147 -60 204 -120 159 -168 159 -422 1 -589 -163 -172 -431
-179 -604 -16 -173 163 -180 430 -17 603 110 117 263 161 416 122z"/>
</g>
</svg>
